<?xml version="1.0" encoding="UTF-8" standalone="yes"?>
<svg version="1.2" width="1024.000000pt" height="1024.000000pt" viewBox="0 0 1024.000000 1024.000000" preserveAspectRatio="xMidYMid meet" baseProfile="tiny-ps" xmlns="http://www.w3.org/2000/svg">
  <title>bimi-svg-tiny-12-ps</title>
  <g transform="translate(0.000000,1024.000000) scale(0.100000,-0.100000)" fill="#000000" stroke="none">
    <path d="M5000 8434 c-157 -11 -291 -27 -439 -54 -214 -39 -263 -51 -406 -98&#xA;-537 -178 -962 -437 -1346 -821 -230 -231 -386 -439 -550 -736 -168 -304 -244&#xA;-499 -318 -815 -73 -316 -85 -421 -85 -780 -1 -327 0 -343 49 -605 97 -514&#xA;339 -1030 673 -1435 124 -151 401 -424 532 -526 353 -273 850 -507 1283 -605&#xA;499 -113 941 -114 1441 -3 551 122 1132 430 1525 809 359 345 642 758 813&#xA;1185 84 210 169 559 203 830 19 159 20 519 0 700 -47 451 -200 912 -433 1309&#xA;-110 190 -324 490 -395 554 -35 31 -48 36 -22 7 11 -12 13 -20 6 -20 -7 0 -10&#xA;-4 -6 -9 3 -6 -3 -15 -14 -20 -11 -6 -26 -18 -35 -26 -8 -8 -26 -16 -40 -17&#xA;-14 -1 -26 -6 -26 -10 0 -4 -6 -8 -13 -8 -24 0 -308 -245 -482 -415 -34 -33&#xA;-140 -135 -236 -226 -96 -91 -259 -251 -364 -354 -330 -326 -534 -524 -735&#xA;-715 -107 -101 -260 -248 -340 -325 -202 -197 -361 -340 -401 -360 -41 -22&#xA;-132 -22 -181 -2 -43 18 -196 149 -383 328 -78 74 -189 179 -248 233 -98 90&#xA;-110 98 -130 88 -40 -21 -172 -138 -175 -156 -7 -32 991 -1006 1030 -1006 8 0&#xA;132 118 448 424 85 83 202 196 260 250 58 55 200 192 315 306 626 614 1057&#xA;1034 1115 1086 36 32 153 147 260 255 225 227 269 261 349 267 36 3 67 12 86&#xA;26 34 25 102 29 97 6 -3 -13 15 -30 33 -30 6 0 3 4 -5 10 -8 5 -11 12 -7 16&#xA;13 14 38 -19 32 -43 -3 -14 1 -36 12 -53 17 -29 17 -31 -1 -47 -10 -10 -16&#xA;-12 -12 -5 4 6 2 12 -3 12 -6 0 -11 -5 -11 -10 0 -18 -40 -56 -40 -39 -1 8 -7&#xA;1 -15 -16 -7 -16 -14 -23 -14 -15 -1 9 -7 6 -18 -10 -9 -14 -34 -44 -54 -67&#xA;-21 -23 -41 -53 -45 -67 -3 -14 -10 -26 -15 -26 -5 0 -8 -3 -7 -7 1 -5 -6 -26&#xA;-16 -48 -26 -58 -22 -82 30 -186 108 -217 193 -494 235 -769 39 -253 31 -669&#xA;-17 -910 -134 -674 -485 -1229 -1047 -1655 -116 -88 -217 -150 -363 -223 -406&#xA;-203 -810 -291 -1279 -279 -231 6 -347 21 -561 72 -188 45 -324 91 -466 158&#xA;-233 110 -388 209 -621 395 -284 226 -502 498 -677 842 -85 169 -117 247 -168&#xA;425 -93 319 -117 499 -109 820 8 278 24 397 91 672 82 338 267 698 500 972&#xA;165 196 407 413 616 553 108 73 384 212 525 266 159 60 461 128 675 152 123&#xA;14 448 14 570 0 213 -24 422 -71 600 -135 205 -74 493 -216 532 -262 11 -14 6&#xA;-22 -37 -60 -102 -91 -229 -180 -260 -182 -5 0 -4 3 3 8 31 19 -232 150 -433&#xA;214 -384 123 -841 140 -1235 47 -261 -62 -587 -202 -800 -345 -337 -225 -646&#xA;-582 -821 -949 -97 -204 -182 -506 -210 -745 -18 -158 -7 -517 20 -661 119&#xA;-636 469 -1179 985 -1528 166 -113 229 -149 374 -216 168 -78 293 -119 487&#xA;-159 225 -47 374 -61 560 -54 610 25 1143 256 1570 682 174 173 280 310 399&#xA;517 131 227 216 447 265 686 42 199 51 288 51 477 0 341 -74 690 -199 945 -66&#xA;135 -61 132 -123 74 -29 -27 -100 -90 -158 -139 -58 -49 -208 -190 -335 -315&#xA;-126 -124 -322 -313 -435 -420 -113 -107 -279 -267 -370 -355 -91 -88 -306&#xA;-295 -479 -460 -172 -165 -350 -335 -395 -379 -101 -97 -146 -119 -246 -120&#xA;-63 -1 -82 3 -117 24 -23 14 -196 171 -385 350 -189 180 -370 351 -403 381&#xA;-154 142 -464 458 -480 489 -26 51 -26 146 1 188 11 18 105 118 208 222 214&#xA;215 251 240 350 240 86 -1 125 -23 246 -140 58 -56 149 -140 203 -188 53 -47&#xA;97 -89 97 -93 0 -12 281 -270 290 -267 5 2 71 64 147 138 76 74 291 284 478&#xA;465 187 182 560 549 830 816 477 474 605 597 769 736 107 92 273 260 269 274&#xA;-1 3 9 4 22 1 14 -2 25 -2 25 0 0 10 -187 153 -295 225 -122 82 -252 163 -260&#xA;163 -2 0 -20 11 -40 24 -41 28 -226 119 -335 164 -362 151 -752 233 -1160 245&#xA;-80 2 -170 3 -200 1z m1059 -150 c10 -9 -35 -3 -49 6 -11 8 -7 9 15 4 17 -4&#xA;32 -8 34 -10z m46 -14 c19 -8 19 -9 -2 -9 -12 -1 -25 4 -28 9 -7 12 2 12 30 0z&#xA;m10 -30 c-3 -5 -12 -10 -18 -10 -7 0 -6 4 3 10 19 12 23 12 15 0z m100 -18&#xA;c-3 -3 -11 0 -18 7 -9 10 -8 11 6 5 10 -3 15 -9 12 -12z m158 -59 c-7 -2 -19&#xA;-2 -25 0 -7 3 -2 5 12 5 14 0 19 -2 13 -5z m242 -113 c3 -6 -1 -7 -9 -4 -18 7&#xA;-21 14 -7 14 6 0 13 -4 16 -10z m190 -122 c-19 -11 -30 -5 -21 11 4 6 14 7 22&#xA;4 15 -5 14 -7 -1 -15z m50 -18 c3 -5 1 -10 -4 -10 -6 0 -11 5 -11 10 0 6 2 10&#xA;4 10 3 0 8 -4 11 -10z m-705 -666 c0 -2 -9 0 -20 6 -11 6 -20 13 -20 16 0 2 9&#xA;0 20 -6 11 -6 20 -13 20 -16z"/>
  </g>
</svg>